<?xml version="1.0" encoding="UTF-8"?>
<svg xmlns="http://www.w3.org/2000/svg" xmlns:xlink="http://www.w3.org/1999/xlink" viewBox="0 0 100 100" width="100px" height="100px">
<g id="surface84105946">
<path style=" stroke:none;fill-rule:nonzero;fill:rgb(100%,100%,100%);fill-opacity:1;" d="M 49.8125 7.9375 C 49.726562 7.953125 49.640625 7.976562 49.5625 8 C 48.632812 8.210938 47.976562 9.046875 48 10 L 48 22 C 47.992188 22.71875 48.367188 23.390625 48.992188 23.757812 C 49.617188 24.117188 50.382812 24.117188 51.007812 23.757812 C 51.632812 23.390625 52.007812 22.71875 52 22 L 52 10 C 52.023438 9.421875 51.789062 8.867188 51.375 8.476562 C 50.953125 8.078125 50.382812 7.882812 49.8125 7.9375 Z M 21.3125 19.6875 C 20.5625 19.820312 19.960938 20.367188 19.75 21.09375 C 19.539062 21.828125 19.757812 22.609375 20.3125 23.125 L 28.8125 31.625 C 29.296875 32.21875 30.070312 32.492188 30.820312 32.320312 C 31.5625 32.148438 32.148438 31.5625 32.320312 30.820312 C 32.492188 30.070312 32.21875 29.296875 31.625 28.8125 L 23.125 20.3125 C 22.710938 19.867188 22.109375 19.640625 21.5 19.6875 C 21.4375 19.6875 21.375 19.6875 21.3125 19.6875 Z M 78.0625 19.6875 C 77.609375 19.75 77.1875 19.976562 76.875 20.3125 L 68.375 28.8125 C 67.78125 29.296875 67.507812 30.070312 67.679688 30.820312 C 67.851562 31.5625 68.4375 32.148438 69.179688 32.320312 C 69.929688 32.492188 70.703125 32.21875 71.1875 31.625 L 79.6875 23.125 C 80.3125 22.53125 80.492188 21.601562 80.125 20.820312 C 79.75 20.03125 78.921875 19.578125 78.0625 19.6875 Z M 49.8125 30 C 49.75 30.015625 49.6875 30.039062 49.625 30.0625 C 49.5 30.070312 49.375 30.09375 49.25 30.125 C 49.226562 30.148438 49.210938 30.164062 49.1875 30.1875 C 38.578125 30.640625 30 39.28125 30 50 C 30 61.007812 38.992188 70 50 70 C 61.007812 70 70 61.007812 70 50 C 70 39.320312 61.492188 30.710938 50.9375 30.1875 C 50.867188 30.1875 50.820312 30.125 50.75 30.125 C 50.546875 30.046875 50.335938 30.007812 50.125 30 C 50.085938 30 50.039062 30 50 30 C 49.9375 30 49.875 30 49.8125 30 Z M 49.875 34 C 49.914062 34 49.960938 34 50 34 C 50.0625 34 50.125 34 50.1875 34 C 58.9375 34.101562 66 41.226562 66 50 C 66 58.84375 58.84375 66 50 66 C 41.164062 66 34 58.84375 34 50 C 34 41.203125 41.09375 34.070312 49.875 34 Z M 9.4375 48 C 8.335938 48.15625 7.5625 49.179688 7.71875 50.28125 C 7.875 51.382812 8.898438 52.15625 10 52 L 22 52 C 22.71875 52.007812 23.390625 51.632812 23.757812 51.007812 C 24.117188 50.382812 24.117188 49.617188 23.757812 48.992188 C 23.390625 48.367188 22.71875 47.992188 22 48 L 10 48 C 9.9375 48 9.875 48 9.8125 48 C 9.75 48 9.6875 48 9.625 48 C 9.5625 48 9.5 48 9.4375 48 Z M 77.4375 48 C 76.335938 48.15625 75.5625 49.179688 75.71875 50.28125 C 75.875 51.382812 76.898438 52.15625 78 52 L 90 52 C 90.71875 52.007812 91.390625 51.632812 91.757812 51.007812 C 92.117188 50.382812 92.117188 49.617188 91.757812 48.992188 C 91.390625 48.367188 90.71875 47.992188 90 48 L 78 48 C 77.9375 48 77.875 48 77.8125 48 C 77.75 48 77.6875 48 77.625 48 C 77.5625 48 77.5 48 77.4375 48 Z M 30 67.75 C 29.546875 67.8125 29.125 68.039062 28.8125 68.375 L 20.3125 76.875 C 19.71875 77.359375 19.445312 78.132812 19.617188 78.882812 C 19.789062 79.625 20.375 80.210938 21.117188 80.382812 C 21.867188 80.554688 22.640625 80.28125 23.125 79.6875 L 31.625 71.1875 C 32.21875 70.617188 32.398438 69.734375 32.078125 68.976562 C 31.765625 68.21875 31.007812 67.734375 30.1875 67.75 C 30.125 67.75 30.0625 67.75 30 67.75 Z M 69.375 67.75 C 68.625 67.882812 68.023438 68.429688 67.8125 69.15625 C 67.601562 69.890625 67.820312 70.671875 68.375 71.1875 L 76.875 79.6875 C 77.359375 80.28125 78.132812 80.554688 78.882812 80.382812 C 79.625 80.210938 80.210938 79.625 80.382812 78.882812 C 80.554688 78.132812 80.28125 77.359375 79.6875 76.875 L 71.1875 68.375 C 70.8125 67.976562 70.296875 67.757812 69.75 67.75 C 69.6875 67.75 69.625 67.75 69.5625 67.75 C 69.5 67.75 69.4375 67.75 69.375 67.75 Z M 49.8125 75.9375 C 49.726562 75.953125 49.640625 75.976562 49.5625 76 C 48.632812 76.210938 47.976562 77.046875 48 78 L 48 90 C 47.992188 90.71875 48.367188 91.390625 48.992188 91.757812 C 49.617188 92.117188 50.382812 92.117188 51.007812 91.757812 C 51.632812 91.390625 52.007812 90.71875 52 90 L 52 78 C 52.023438 77.421875 51.789062 76.867188 51.375 76.476562 C 50.953125 76.078125 50.382812 75.882812 49.8125 75.9375 Z M 49.8125 75.9375 "/>
</g>
</svg>
